<svg id="visual" viewBox="0 0 1920 1080" width="1920" height="1080" xmlns="http://www.w3.org/2000/svg" xmlns:xlink="http://www.w3.org/1999/xlink" version="1.1"><rect x="0" y="0" width="1920" height="1080" fill="#ffffff"></rect><defs><linearGradient id="grad1_0" x1="43.8%" y1="0%" x2="100%" y2="100%"><stop offset="14.444444444444446%" stop-color="#ff0e00" stop-opacity="1"></stop><stop offset="85.55555555555554%" stop-color="#ff0e00" stop-opacity="1"></stop></linearGradient></defs><defs><linearGradient id="grad1_1" x1="43.8%" y1="0%" x2="100%" y2="100%"><stop offset="14.444444444444446%" stop-color="#ff0e00" stop-opacity="1"></stop><stop offset="85.55555555555554%" stop-color="#ff7c5a" stop-opacity="1"></stop></linearGradient></defs><defs><linearGradient id="grad1_2" x1="43.8%" y1="0%" x2="100%" y2="100%"><stop offset="14.444444444444446%" stop-color="#ffc0aa" stop-opacity="1"></stop><stop offset="85.55555555555554%" stop-color="#ff7c5a" stop-opacity="1"></stop></linearGradient></defs><defs><linearGradient id="grad1_3" x1="43.8%" y1="0%" x2="100%" y2="100%"><stop offset="14.444444444444446%" stop-color="#ffc0aa" stop-opacity="1"></stop><stop offset="85.55555555555554%" stop-color="#ffffff" stop-opacity="1"></stop></linearGradient></defs><defs><linearGradient id="grad2_0" x1="0%" y1="0%" x2="56.3%" y2="100%"><stop offset="14.444444444444446%" stop-color="#ff0e00" stop-opacity="1"></stop><stop offset="85.55555555555554%" stop-color="#ff0e00" stop-opacity="1"></stop></linearGradient></defs><defs><linearGradient id="grad2_1" x1="0%" y1="0%" x2="56.3%" y2="100%"><stop offset="14.444444444444446%" stop-color="#ff7c5a" stop-opacity="1"></stop><stop offset="85.55555555555554%" stop-color="#ff0e00" stop-opacity="1"></stop></linearGradient></defs><defs><linearGradient id="grad2_2" x1="0%" y1="0%" x2="56.3%" y2="100%"><stop offset="14.444444444444446%" stop-color="#ff7c5a" stop-opacity="1"></stop><stop offset="85.55555555555554%" stop-color="#ffc0aa" stop-opacity="1"></stop></linearGradient></defs><defs><linearGradient id="grad2_3" x1="0%" y1="0%" x2="56.3%" y2="100%"><stop offset="14.444444444444446%" stop-color="#ffffff" stop-opacity="1"></stop><stop offset="85.55555555555554%" stop-color="#ffc0aa" stop-opacity="1"></stop></linearGradient></defs><g transform="translate(1920, 0)"><path d="M0 972C-59.9 949.9 -119.9 927.8 -181.6 913.1C-243.4 898.5 -307 891.3 -355.5 858.3C-404 825.3 -437.5 766.4 -493.9 739.2C-550.3 712 -629.8 716.4 -687.3 687.3C-744.8 658.2 -780.4 595.7 -791.6 528.9C-802.7 462.1 -789.4 391.1 -805.6 333.7C-821.9 276.3 -867.7 232.4 -900.4 179.1C-933 125.7 -952.5 62.9 -972 0L0 0Z" fill="#ffdfd4"></path><path d="M0 729C-44.9 712.4 -89.9 695.8 -136.2 684.8C-182.5 673.9 -230.2 668.5 -266.6 643.7C-303 619 -328.1 574.8 -370.4 554.4C-412.8 534 -472.3 537.3 -515.5 515.5C-558.6 493.7 -585.3 446.8 -593.7 396.7C-602 346.6 -592 293.3 -604.2 250.3C-616.4 207.2 -650.8 174.3 -675.3 134.3C-699.8 94.3 -714.4 47.2 -729 0L0 0Z" fill="#ff9f82"></path><path d="M0 486C-30 474.9 -59.9 463.9 -90.8 456.6C-121.7 449.2 -153.5 445.7 -177.8 429.1C-202 412.6 -218.7 383.2 -247 369.6C-275.2 356 -314.9 358.2 -343.7 343.7C-372.4 329.1 -390.2 297.8 -395.8 264.5C-401.3 231.1 -394.7 195.6 -402.8 166.8C-410.9 138.1 -433.9 116.2 -450.2 89.5C-466.5 62.9 -476.3 31.4 -486 0L0 0Z" fill="#ff5433"></path><path d="M0 243C-15 237.5 -30 231.9 -45.4 228.3C-60.8 224.6 -76.7 222.8 -88.9 214.6C-101 206.3 -109.4 191.6 -123.5 184.8C-137.6 178 -157.4 179.1 -171.8 171.8C-186.2 164.6 -195.1 148.9 -197.9 132.2C-200.7 115.5 -197.3 97.8 -201.4 83.4C-205.5 69.1 -216.9 58.1 -225.1 44.8C-233.3 31.4 -238.1 15.7 -243 0L0 0Z" fill="#ff0e00"></path></g><g transform="translate(0, 1080)"><path d="M0 -972C58.3 -939.7 116.7 -907.5 178.5 -897.4C240.3 -887.3 305.6 -899.5 366.6 -885.1C427.6 -870.7 484.4 -829.8 517.8 -774.9C551.2 -720.1 561.2 -651.2 617.3 -617.3C673.4 -583.4 775.6 -584.6 807.4 -539.5C839.2 -494.4 800.6 -403 820.4 -339.8C840.2 -276.6 918.3 -241.6 953.3 -189.6C988.3 -137.7 980.2 -68.8 972 0L0 0Z" fill="#ffdfd4"></path><path d="M0 -729C43.8 -704.8 87.5 -680.6 133.9 -673.1C180.2 -665.5 229.2 -674.6 275 -663.8C320.7 -653 363.3 -622.4 388.3 -581.2C413.4 -540 420.9 -488.4 463 -463C505 -437.6 581.7 -438.4 605.5 -404.6C629.4 -370.8 600.5 -302.3 615.3 -254.9C630.1 -207.5 688.8 -181.2 715 -142.2C741.2 -103.3 735.1 -51.6 729 0L0 0Z" fill="#ff9f82"></path><path d="M0 -486C29.2 -469.9 58.3 -453.7 89.3 -448.7C120.2 -443.7 152.8 -449.7 183.3 -442.5C213.8 -435.3 242.2 -414.9 258.9 -387.5C275.6 -360 280.6 -325.6 308.7 -308.7C336.7 -291.7 387.8 -292.3 403.7 -269.7C419.6 -247.2 400.3 -201.5 410.2 -169.9C420.1 -138.3 459.2 -120.8 476.7 -94.8C494.2 -68.8 490.1 -34.4 486 0L0 0Z" fill="#ff5433"></path><path d="M0 -243C14.6 -234.9 29.2 -226.9 44.6 -224.4C60.1 -221.8 76.4 -224.9 91.7 -221.3C106.9 -217.7 121.1 -207.5 129.4 -193.7C137.8 -180 140.3 -162.8 154.3 -154.3C168.3 -145.9 193.9 -146.1 201.8 -134.9C209.8 -123.6 200.2 -100.8 205.1 -85C210 -69.2 229.6 -60.4 238.3 -47.4C247.1 -34.4 245 -17.2 243 0L0 0Z" fill="#ff0e00"></path></g></svg>